<svg data-name="Group 205" height="22.243" id="Group_205" viewBox="0 0 22.253 22.243" width="22.253"
    xmlns="http://www.w3.org/2000/svg">
    <path
        d="M307.228,101.4a8.956,8.956,0,0,1,1.325.1.242.242,0,0,0,.275-.206v0a5.155,5.155,0,0,0,.044-.627c0-3.867-3.8-7.015-8.466-7.015s-8.466,3.148-8.466,7.015a6.344,6.344,0,0,0,2.173,4.691l-1.645,2.882a.484.484,0,0,0,.6.69l4.29-1.717a9.782,9.782,0,0,0,1.376.329.241.241,0,0,0,.275-.181A8.37,8.37,0,0,1,307.228,101.4Zm0,1.451c-3.773,0-6.966,2.764-6.966,6.036a6.035,6.035,0,0,0,2.862,5.013,6.925,6.925,0,0,0,6.426.6l3.469,1.371a.539.539,0,0,0,.654-.719l-.807-2.855a5.008,5.008,0,0,0,1.329-3.408C314.194,105.615,311,102.851,307.228,102.851Z"
        data-name="Path 22" fill="#f8702b" id="Path_22" transform="translate(-291.941 -93.648)" />
</svg>
