<svg xmlns="http://www.w3.org/2000/svg" width="19.049" height="19.049" viewBox="0 0 19.049 19.049">
  <g id="Group_182" data-name="Group 182" transform="translate(-356.937 -400.867)">
    <g id="Group_181" data-name="Group 181" transform="translate(356.937 400.867)">
      <path id="Path_13" data-name="Path 13" d="M370.629,419.916a5.358,5.358,0,1,1,5.358-5.358A5.364,5.364,0,0,1,370.629,419.916Zm0-9.525a4.167,4.167,0,1,0,4.167,4.167A4.171,4.171,0,0,0,370.629,410.392Zm0,7.144a.6.6,0,0,1-.6-.6v-3.325l-.77.77a.6.6,0,0,1-.842-.842l1.784-1.784.013-.013a.6.6,0,0,1,.179-.117h0a.6.6,0,0,1,.226-.046h.005a.6.6,0,0,1,.226.046h0a.6.6,0,0,1,.18.117l.013.013,1.784,1.784a.6.6,0,0,1-.842.842l-.77-.77v3.325A.6.6,0,0,1,370.629,417.535Zm-7.144,0h-4.762a1.788,1.788,0,0,1-1.786-1.786v-13.1a1.788,1.788,0,0,1,1.786-1.786h8.437a1.774,1.774,0,0,1,1.262.523l2.279,2.28a1.771,1.771,0,0,1,.523,1.262v2.484a.6.6,0,1,1-1.191,0v-2.484a.589.589,0,0,0-.174-.42l-2.279-2.28a.591.591,0,0,0-.421-.174h-8.437a.6.6,0,0,0-.6.6v13.1a.6.6,0,0,0,.6.6h4.762a.6.6,0,1,1,0,1.191Zm0-4.762h-3.572a.6.6,0,0,1-.536-.856l1.538-3.159a.627.627,0,0,1,.042-.074c.02-.03.042-.06.066-.088a1.19,1.19,0,0,1,1.667-.177l.482.387,1.223-1.743a1.193,1.193,0,0,1,1.209-.484,1.185,1.185,0,0,1,.756.508l.672,1.074a.6.6,0,0,1-1.009.631l-.663-1.06-1.578,2.278a.595.595,0,0,1-.859.123l-.974-.78-1.085,2.231h2.62a.6.6,0,0,1,0,1.191Zm-2.381-6.251a.893.893,0,1,1,.893-.893A.894.894,0,0,1,361.1,406.522Zm0-1.191a.3.3,0,1,0,.3.3A.3.3,0,0,0,361.1,405.332Z" transform="translate(-356.937 -400.867)" fill="#f8702b"/>
    </g>
  </g>
</svg>
