<svg id="apprentice" xmlns="http://www.w3.org/2000/svg" width="28" height="28" viewBox="0 0 28 28">
  <g id="Ellipse_17" data-name="Ellipse 17" fill="#f8702b" stroke="#fff" stroke-width="2">
    <circle cx="14" cy="14" r="14" stroke="none"/>
    <circle cx="14" cy="14" r="13" fill="none"/>
  </g>
  <path id="Union_1" data-name="Union 1" d="M1.625,14.688a3.771,3.771,0,0,1,0-5.326L4.1,6.893a.708.708,0,0,1,1,0L6.758,8.554l3.681-3.681a2.455,2.455,0,0,1,.4-2.867l.062-.061a1.58,1.58,0,0,1,2.227.009l1.236,1.237a1.585,1.585,0,0,1,0,2.229,2.46,2.46,0,0,1-2.924.454L7.271,10.044l-.012.012-.013.012L5.715,11.6a.708.708,0,0,1-1-1L5.756,9.555,4.6,8.4,2.628,10.364a2.353,2.353,0,0,0,0,3.322,2.348,2.348,0,0,0,3.322,0l1.969-1.969-.426-.424a.709.709,0,1,1,1-1l.926.925a.707.707,0,0,1,0,1l-2.47,2.471a3.768,3.768,0,0,1-5.326,0ZM11.891,2.956a1.057,1.057,0,0,0-.326.773,1.023,1.023,0,0,0,.2.593.749.749,0,0,1,.127.1.726.726,0,0,1,.1.125,1.039,1.039,0,0,0,1.359-.117l.007-.008a.163.163,0,0,0,0-.232L12.124,2.955a.165.165,0,0,0-.233,0Z" transform="translate(6.588 5.765)" fill="#fff" stroke="rgba(255,255,255,255)" stroke-miterlimit="10" stroke-width="1"/>
</svg>
