<svg data-name="Group 207" height="22.252" id="Group_207" viewBox="0 0 18.383 22.252" width="18.383"
    xmlns="http://www.w3.org/2000/svg">
    <path
        d="M438.83,105.25a5.805,5.805,0,1,0-5.805-5.805A5.8,5.8,0,0,0,438.83,105.25Zm0-1.935a3.87,3.87,0,0,1-3.87-3.87,3.77,3.77,0,0,1,.284-1.422.246.246,0,0,1,.147-.139.241.241,0,0,1,.2.023A9.234,9.234,0,0,0,442.39,99a.241.241,0,0,1,.286.185.149.149,0,0,1,0,.023,1.982,1.982,0,0,1,.02.241A3.87,3.87,0,0,1,438.83,103.315Zm0,2.9a9.2,9.2,0,0,0-9.191,9.192.484.484,0,0,0,.484.484h17.415a.484.484,0,0,0,.484-.484A9.2,9.2,0,0,0,438.83,106.217Z"
        data-name="Path 24" fill="#f8702b" id="Path_24" transform="translate(-429.639 -93.64)" />
</svg>
