<svg xmlns="http://www.w3.org/2000/svg" width="28.001" height="28" viewBox="0 0 28.001 28">
  <path id="Subtraction_1" data-name="Subtraction 1" d="M-10715-6141a13.911,13.911,0,0,1-9.9-4.1,13.9,13.9,0,0,1-4.1-9.9,13.906,13.906,0,0,1,4.1-9.9,13.911,13.911,0,0,1,9.9-4.1,13.9,13.9,0,0,1,9.9,4.1,13.906,13.906,0,0,1,4.1,9.9,13.906,13.906,0,0,1-4.1,9.9A13.9,13.9,0,0,1-10715-6141Zm-.075-13.813a6.3,6.3,0,0,0-6.282,6.285.329.329,0,0,0,.329.329h11.906a.33.33,0,0,0,.331-.329A6.3,6.3,0,0,0-10715.074-6154.814Zm.046-8.186a3.665,3.665,0,0,0-1.86.509,3.85,3.85,0,0,0-1.379,1.378,3.647,3.647,0,0,0-.509,1.888,3.667,3.667,0,0,0,.509,1.89,3.836,3.836,0,0,0,1.379,1.376,3.665,3.665,0,0,0,1.876.512h.03a3.674,3.674,0,0,0,1.871-.512,3.828,3.828,0,0,0,1.379-1.376,3.661,3.661,0,0,0,.509-1.89,3.666,3.666,0,0,0-.509-1.888,3.85,3.85,0,0,0-1.379-1.378,3.677,3.677,0,0,0-1.858-.509h-.059Z" transform="translate(10729.001 6169.001)" fill="#b7b7b7"/>
</svg>
