<svg height="13.562" viewBox="0 0 13.562 13.562" width="13.562" xmlns="http://www.w3.org/2000/svg">
    <path
        d="M13.781-5.25a6.573,6.573,0,0,0-.916-3.391,6.852,6.852,0,0,0-2.475-2.475A6.573,6.573,0,0,0,7-12.031a6.573,6.573,0,0,0-3.391.916A6.852,6.852,0,0,0,1.135-8.641,6.573,6.573,0,0,0,.219-5.25a6.573,6.573,0,0,0,.916,3.391A6.852,6.852,0,0,0,3.609.615,6.573,6.573,0,0,0,7,1.531,6.573,6.573,0,0,0,10.391.615a6.852,6.852,0,0,0,2.475-2.475A6.573,6.573,0,0,0,13.781-5.25ZM7.191-9.789a3.329,3.329,0,0,1,1.5.369A3.255,3.255,0,0,1,9.9-8.408,2.351,2.351,0,0,1,10.363-7a2.078,2.078,0,0,1-.52,1.449,4.922,4.922,0,0,1-1.012.766,4.626,4.626,0,0,0-.52.328.473.473,0,0,0-.219.383v.027a.316.316,0,0,1-.1.232.316.316,0,0,1-.232.1H6.234A.316.316,0,0,1,6-3.814a.316.316,0,0,1-.1-.232v-.109A1.729,1.729,0,0,1,6.4-5.387a3.946,3.946,0,0,1,.957-.684L7.41-6.1a5.4,5.4,0,0,0,.629-.41.673.673,0,0,0,.246-.52.756.756,0,0,0-.4-.643,1.541,1.541,0,0,0-.861-.26,1.468,1.468,0,0,0-.875.273,5.259,5.259,0,0,0-.684.711.3.3,0,0,1-.219.123.257.257,0,0,1-.219-.068L4.074-7.6a.345.345,0,0,1-.137-.205.274.274,0,0,1,.055-.232A3.819,3.819,0,0,1,5.3-9.324,3.666,3.666,0,0,1,7.191-9.789ZM7-3.008a1.211,1.211,0,0,1,.889.369,1.211,1.211,0,0,1,.369.889,1.211,1.211,0,0,1-.369.889A1.211,1.211,0,0,1,7-.492a1.211,1.211,0,0,1-.889-.369,1.211,1.211,0,0,1-.369-.889,1.211,1.211,0,0,1,.369-.889A1.211,1.211,0,0,1,7-3.008Z"
        data-name="Path 53" fill="#f8702b" id="Path_53" transform="translate(-0.219 12.031)" />
</svg>
