<svg height="11.008" viewBox="0 0 11.008 11.008" width="11.008" xmlns="http://www.w3.org/2000/svg">
    <path
        d="M9.711-5.586a.267.267,0,0,1-.193.086.2.2,0,0,1-.172-.086L6.961-7.971a.2.2,0,0,1-.086-.172.267.267,0,0,1,.086-.193l.988-.988a.994.994,0,0,1,.73-.3.994.994,0,0,1,.73.3L10.7-8.035a.994.994,0,0,1,.3.73.994.994,0,0,1-.3.73ZM6.1-7.477a.267.267,0,0,1,.193-.086.2.2,0,0,1,.172.086L8.852-5.092a.2.2,0,0,1,.086.172.267.267,0,0,1-.086.193L3.223.9.6,1.375a.493.493,0,0,1-.451-.15A.493.493,0,0,1,0,.773L.473-1.848ZM2.664-2.32a.291.291,0,0,0,.215.086.291.291,0,0,0,.215-.086L6.4-5.629a.291.291,0,0,0,.086-.215A.291.291,0,0,0,6.4-6.059a.291.291,0,0,0-.215-.086.291.291,0,0,0-.215.086L2.664-2.75a.291.291,0,0,0-.086.215A.291.291,0,0,0,2.664-2.32Zm-.773,1.8V-1.547H1.117L.859-.172l.687.687L2.922.258V-.516Z"
        data-name="Path 46" fill="#f8702b" id="Path_46" transform="translate(0.008 9.625)" />
</svg>
