<svg height="14" viewBox="0 0 12.25 14" width="12.25" xmlns="http://www.w3.org/2000/svg">
    <path
        d="M10.937-6.125a1.266,1.266,0,0,1,.93.383,1.266,1.266,0,0,1,.383.93V.437a1.266,1.266,0,0,1-.383.93,1.266,1.266,0,0,1-.93.383H1.312a1.266,1.266,0,0,1-.93-.383A1.266,1.266,0,0,1,0,.437v-5.25a1.266,1.266,0,0,1,.383-.93,1.266,1.266,0,0,1,.93-.383h.656V-8.094a4.04,4.04,0,0,1,.561-2.078,4.177,4.177,0,0,1,1.518-1.518,4.04,4.04,0,0,1,2.078-.561,4.04,4.04,0,0,1,2.078.561,4.177,4.177,0,0,1,1.518,1.518,4.04,4.04,0,0,1,.561,2.078v1.969Zm-2.844,0V-8.094A1.9,1.9,0,0,0,7.52-9.488a1.9,1.9,0,0,0-1.395-.574,1.9,1.9,0,0,0-1.395.574,1.9,1.9,0,0,0-.574,1.395v1.969Z"
        data-name="Path 54" fill="#f8702b" id="Path_54" transform="translate(0 12.25)" />
</svg>
