<svg data-name="Group 275" height="52.165" id="Group_275" viewBox="0 0 51.181 52.165" width="51.181"
    xmlns="http://www.w3.org/2000/svg">
    <path
        d="M378.35,132.861a.538.538,0,0,0,.114-.437.546.546,0,0,0-.261-.374,11.118,11.118,0,0,0-5.591-1.451c-6.288,0-10,11.573-10.857,14.556a.537.537,0,0,0,.089.478.545.545,0,0,0,.437.218h7.484a.542.542,0,0,0,.542-.484,4.355,4.355,0,0,1,.546-1.677A84.212,84.212,0,0,1,378.35,132.861Zm17.285-12.833a.544.544,0,0,0,.418-.647.535.535,0,0,0-.017-.061,5.4,5.4,0,0,0-1.239-2.109l-5.229-5.229a2.181,2.181,0,0,0-3.081,0l-2.318,2.3-13.095-13.093,3.846-3.85a2.179,2.179,0,0,0-3.077-3.081l-10.782,10.782a2.179,2.179,0,0,0,3.081,3.081l3.851-3.86,13.1,13.1-2.312,2.32a2.181,2.181,0,0,0,0,3.081l4.245,4.243a.544.544,0,0,0,.756.013A26.633,26.633,0,0,1,395.635,120.028Zm2.967,4.029c-10.174,0-21.063,16.994-23.475,20.961a.545.545,0,0,0,.467.825h35.493a.555.555,0,0,0,.4-.171.545.545,0,0,0,.144-.412C411.39,141.793,409.577,124.057,398.6,124.057Z"
        data-name="Path 23" fill="#f8702b" id="Path_23" transform="translate(-360.45 -93.687)" />
</svg>
