<svg id="Component_8_2" data-name="Component 8 – 2" xmlns="http://www.w3.org/2000/svg" width="28" height="28" viewBox="0 0 28 28">
  <g id="Ellipse_19" data-name="Ellipse 19" fill="#f8702b" stroke="#fff" stroke-width="2">
    <circle cx="14" cy="14" r="14" stroke="none"/>
    <circle cx="14" cy="14" r="13" fill="none"/>
  </g>
  <path id="Union_3" data-name="Union 3" d="M14.86,6.373a1.419,1.419,0,0,0-.457-.994A1.371,1.371,0,0,0,13.4,5H10.977L9.687,2.221l-.016-.033a1.479,1.479,0,0,0-.619-.62,1.5,1.5,0,0,0-2.036.65L5.724,5H3.317a1.445,1.445,0,0,0-1.109.48,1.419,1.419,0,0,0-.357,1.033,1.4,1.4,0,0,0,.45.957l2.15,2.119-1.2,2.746a1.483,1.483,0,0,0,.086,1.311,1.467,1.467,0,0,0,.9.688,1.5,1.5,0,0,0,.383.05,1.452,1.452,0,0,0,.729-.2l3-1.689,3,1.685a1.484,1.484,0,0,0,1.3.085,1.479,1.479,0,0,0,.8-1.944L12.26,9.589,14.383,7.5A1.42,1.42,0,0,0,14.86,6.373ZM10.894,8.909a.722.722,0,0,0-.156.8l1.39,3.191.662-.288-.724.316L8.71,11.042a.722.722,0,0,0-.708,0L4.645,12.929c-.005,0-.055-.028-.061-.028L5.973,9.711a.722.722,0,0,0-.155-.8L3.3,6.444H6.185a.722.722,0,0,0,.654-.418L8.308,2.863a.048.048,0,0,1,.068-.019.049.049,0,0,1,.014.013L9.862,6.025a.721.721,0,0,0,.655.418H13.4Z" transform="translate(5.765 5.765)" fill="#fff" stroke="rgba(255,255,255,255)" stroke-miterlimit="10" stroke-width="1"/>
</svg>
