<svg height="22.061" viewBox="0 0 20.345 22.061" width="20.345" xmlns="http://www.w3.org/2000/svg">
    <path
        d="M247.712,113.26l-1.957-17.731a1.833,1.833,0,0,0-1.781-1.663H231.132a1.833,1.833,0,0,0-1.781,1.663l-1.957,17.731c-.13,1.458.708,2.667,1.873,2.667h16.572C247,115.927,247.842,114.718,247.712,113.26Zm-10.159-10.179a5.467,5.467,0,0,1-5.461-5.461.871.871,0,0,1,1.742,0,3.719,3.719,0,0,0,7.439,0,.871.871,0,0,1,1.742,0A5.467,5.467,0,0,1,237.553,103.081Z"
        data-name="Path 21" fill="#f8702b" fill-rule="evenodd" id="Path_21"
        transform="translate(-227.38 -93.866)" />
</svg>
