<svg height="12" viewBox="0 0 9 12" width="9" xmlns="http://www.w3.org/2000/svg">
    <path
        d="M4.031,12.266A.538.538,0,0,0,4.5,12.5a.538.538,0,0,0,.469-.234l1.57-2.25Q7.711,8.328,8.086,7.742a6.6,6.6,0,0,0,.727-1.418A4.266,4.266,0,0,0,9,5a4.343,4.343,0,0,0-.609-2.25A4.586,4.586,0,0,0,6.75,1.109,4.343,4.343,0,0,0,4.5.5a4.343,4.343,0,0,0-2.25.609A4.586,4.586,0,0,0,.609,2.75,4.343,4.343,0,0,0,0,5,4.266,4.266,0,0,0,.187,6.324,6.6,6.6,0,0,0,.914,7.742q.375.586,1.547,2.273Q3.422,11.375,4.031,12.266ZM4.5,6.875A1.881,1.881,0,0,1,2.625,5,1.881,1.881,0,0,1,4.5,3.125,1.881,1.881,0,0,1,6.375,5,1.881,1.881,0,0,1,4.5,6.875Z"
        data-name="Path 52" fill="#f8702b" id="Path_52" transform="translate(0 -0.5)" />
</svg>
