<svg id="apprentice" xmlns="http://www.w3.org/2000/svg" width="28" height="28" viewBox="0 0 28 28">
  <g id="Ellipse_18" data-name="Ellipse 18" fill="#f8702b" stroke="#fff" stroke-width="2">
    <circle cx="14" cy="14" r="14" stroke="none"/>
    <circle cx="14" cy="14" r="13" fill="none"/>
  </g>
  <path id="Union_2" data-name="Union 2" d="M10.272,7.7a4.217,4.217,0,1,0-5.818.039l-.542,4.507a1.331,1.331,0,0,0,1.064,1.547,1.351,1.351,0,0,0,.242.022,1.318,1.318,0,0,0,.938-.39l1.212-1.212,1.21,1.211a1.316,1.316,0,0,0,.94.391h0a1.329,1.329,0,0,0,1.312-1.526ZM7.342,1.859A2.814,2.814,0,1,1,4.531,4.673,2.815,2.815,0,0,1,7.342,1.859Zm.522,8.863a.7.7,0,0,0-.994,0L5.323,12.27l.444-3.684a4.188,4.188,0,0,0,3.194-.017l.45,3.7Z" transform="translate(6.918 6.765)" fill="#fff" stroke="rgba(255,255,255,255)" stroke-miterlimit="10" stroke-width="1"/>
</svg>
