<svg height="9.625" viewBox="0 0 12.375 9.625" width="12.375" xmlns="http://www.w3.org/2000/svg">
    <g data-name="Group 386" id="Group_386" transform="translate(-212 191.852)">
        <g data-name="Group 6" id="Group_6" transform="translate(-2)">
            <path
                d="M12.375-7.047a.249.249,0,0,1-.075.183.249.249,0,0,1-.183.075H3.437v.172a.5.5,0,0,1-.15.365.5.5,0,0,1-.365.15H2.578a.5.5,0,0,1-.365-.15.5.5,0,0,1-.15-.365v-.172H.258a.249.249,0,0,1-.183-.075A.249.249,0,0,1,0-7.047v-.859a.249.249,0,0,1,.075-.183.249.249,0,0,1,.183-.075h1.8v-.172a.5.5,0,0,1,.15-.365.5.5,0,0,1,.365-.15h.344a.5.5,0,0,1,.365.15.5.5,0,0,1,.15.365v.172h8.68a.249.249,0,0,1,.183.075.249.249,0,0,1,.075.183Zm-.258,2.32a.249.249,0,0,1,.183.075.249.249,0,0,1,.075.183v.859a.249.249,0,0,1-.075.183.249.249,0,0,1-.183.075h-1.8v.172a.5.5,0,0,1-.15.365.5.5,0,0,1-.365.15H9.453a.5.5,0,0,1-.365-.15.5.5,0,0,1-.15-.365v-.172H.258a.249.249,0,0,1-.183-.075A.249.249,0,0,1,0-3.609v-.859a.249.249,0,0,1,.075-.183.249.249,0,0,1,.183-.075h8.68V-4.9a.5.5,0,0,1,.15-.365.5.5,0,0,1,.365-.15H9.8a.5.5,0,0,1,.365.15.5.5,0,0,1,.15.365v.172Zm0,3.437a.249.249,0,0,1,.183.075.249.249,0,0,1,.075.183v.859A.249.249,0,0,1,12.3.011a.249.249,0,0,1-.183.075H6.187V.258a.5.5,0,0,1-.15.365.5.5,0,0,1-.365.15H5.328a.5.5,0,0,1-.365-.15.5.5,0,0,1-.15-.365V.086H.258A.249.249,0,0,1,.075.011.249.249,0,0,1,0-.172v-.859a.249.249,0,0,1,.075-.183.249.249,0,0,1,.183-.075H4.812v-.172a.5.5,0,0,1,.15-.365.5.5,0,0,1,.365-.15h.344a.5.5,0,0,1,.365.15.5.5,0,0,1,.15.365v.172Z"
                data-name="Path 51" fill="#f8702b" id="Path_51" transform="translate(214 -183)" />
        </g>
    </g>
</svg>
