<?xml version="1.0" encoding="utf-8"?>
<!-- Generator: Adobe Illustrator 24.0.0, SVG Export Plug-In . SVG Version: 6.00 Build 0)  -->
<svg version="1.1" id="Layer_1" xmlns="http://www.w3.org/2000/svg" xmlns:xlink="http://www.w3.org/1999/xlink" x="0px" y="0px"
	 viewBox="0 0 16 13" style="enable-background:new 0 0 16 13;" xml:space="preserve">
<!-- <style type="text/css">
	.st0{enable-background:new    ;}
	.st1{fill:#F8702B;}
</style> -->
<g id="Group_278" transform="translate(-46 -130)">
	<g id="Group_108" transform="translate(35 601)">
		<g id="Group_6" transform="translate(0 0)">
			<g class="st0">
				<path class="st1" d="M19.2-463.2c0-0.1,0-0.1,0.1-0.2l0.9-0.9c0.1-0.1,0.2-0.1,0.3-0.1s0.2,0.1,0.2,0.2v3.4
					c0,0.3-0.1,0.5-0.3,0.7s-0.4,0.3-0.7,0.3H12c-0.3,0-0.5-0.1-0.7-0.3s-0.3-0.4-0.3-0.7v-7.6c0-0.3,0.1-0.5,0.3-0.7
					s0.4-0.3,0.7-0.3h6.1c0.1,0,0.2,0.1,0.2,0.2s0,0.2-0.1,0.3l-0.9,0.9c0,0-0.1,0.1-0.2,0.1h-4.9v6.9h6.9V-463.2z M19.7-468.8
					c0,0-0.1-0.1-0.2-0.1s-0.1,0-0.2,0.1l-4.7,4.7l-0.2,2c0,0.1,0,0.3,0.1,0.4s0.2,0.1,0.4,0.1l2-0.2l4.7-4.7c0,0,0.1-0.1,0.1-0.2
					s0-0.1-0.1-0.2L19.7-468.8z M23.1-469.3c0.2,0.2,0.2,0.4,0.2,0.6s-0.1,0.4-0.2,0.6l-0.8,0.8c0,0-0.1,0.1-0.2,0.1s-0.1,0-0.2-0.1
					l-1.9-1.9c0,0-0.1-0.1-0.1-0.2s0-0.1,0.1-0.2l0.8-0.8c0.2-0.2,0.4-0.2,0.6-0.2s0.4,0.1,0.6,0.2L23.1-469.3z"/>
			</g>
		</g>
	</g>
</g>
</svg>
