<svg height="23.8" viewBox="0 0 20.359 23.8" width="20.359" xmlns="http://www.w3.org/2000/svg">
    <path
        d="M-6472.492-3505.2a.51.51,0,0,1-.508-.51,9.689,9.689,0,0,1,9.679-9.679,9.691,9.691,0,0,1,9.681,9.679.511.511,0,0,1-.51.51Zm6.376-11.951a5.9,5.9,0,0,1-2.124-2.122,5.651,5.651,0,0,1-.785-2.91,5.651,5.651,0,0,1,.785-2.909,5.915,5.915,0,0,1,2.124-2.123,5.65,5.65,0,0,1,2.909-.785,5.651,5.651,0,0,1,2.91.785,5.894,5.894,0,0,1,2.123,2.123,5.646,5.646,0,0,1,.785,2.909,5.647,5.647,0,0,1-.785,2.91,5.878,5.878,0,0,1-2.123,2.122,5.636,5.636,0,0,1-2.91.786A5.635,5.635,0,0,1-6466.115-3517.151Zm-.387-5.887a.274.274,0,0,0-.081.2v1.313a.276.276,0,0,0,.081.2.273.273,0,0,0,.2.083h2.157v2.157a.272.272,0,0,0,.083.2.271.271,0,0,0,.2.081h1.313a.268.268,0,0,0,.2-.081.272.272,0,0,0,.083-.2v-2.157h2.158a.273.273,0,0,0,.2-.083.272.272,0,0,0,.083-.2v-1.313a.27.27,0,0,0-.083-.2.272.272,0,0,0-.2-.083h-2.158v-2.157a.273.273,0,0,0-.083-.2.27.27,0,0,0-.2-.083h-1.313a.273.273,0,0,0-.2.083.273.273,0,0,0-.083.2v2.157h-2.157A.272.272,0,0,0-6466.5-3523.038Z"
        data-name="Union 4" fill="#f8702b" id="Union_4" stroke="rgba(0,0,0,0)"
        stroke-miterlimit="10" stroke-width="1" transform="translate(6473.5 3528.5)" />
</svg>
