<svg height="12.008" viewBox="0 0 11.904 12.008" width="11.904" xmlns="http://www.w3.org/2000/svg">
    <g data-name="Group 48" id="Group_48" transform="translate(-36 -280.163)">
        <g data-name="Group 1" id="Group_1" transform="translate(36.256 280.163)">
            <g data-name="Group 31" id="Group_31" transform="translate(-363.777 -407.126)">
                <path
                    d="M375.377,411.46a.769.769,0,0,0-.718-.5h-3.11a.256.256,0,0,1-.241-.171l-1.116-3.164a.767.767,0,0,0-1.436,0l0,.008-1.114,3.156a.255.255,0,0,1-.241.171h-3.111a.766.766,0,0,0-.492,1.354l2.649,2.2a.256.256,0,0,1,.079.277l-1.113,3.337a.766.766,0,0,0,1.18.86l2.731-2a.255.255,0,0,1,.3,0l2.73,2a.767.767,0,0,0,1.181-.86l-1.113-3.339a.255.255,0,0,1,.079-.277l2.654-2.2A.766.766,0,0,0,375.377,411.46Z"
                    data-name="Path 4" fill="#f8702b" id="Path_4" />
            </g>
        </g>
    </g>
</svg>
