<svg height="15.328" viewBox="0 0 15.75 15.328" width="15.75" xmlns="http://www.w3.org/2000/svg">
    <path
        d="M6.715-13.394a.715.715,0,0,0-.264.6.879.879,0,0,0,.264.6l4.219,4.043H.844a.814.814,0,0,0-.6.246.814.814,0,0,0-.246.6v1.125a.814.814,0,0,0,.246.6.814.814,0,0,0,.6.246h10.09L6.715-1.3a.879.879,0,0,0-.264.6.715.715,0,0,0,.264.6l.773.773a.849.849,0,0,0,1.2,0l6.82-6.82a.814.814,0,0,0,.246-.6.814.814,0,0,0-.246-.6l-6.82-6.82a.814.814,0,0,0-.6-.246.814.814,0,0,0-.6.246Z"
        data-name="Path 48" fill="#f8702b" id="Path_48" transform="translate(0 14.414)" />
</svg>
