<svg height="24.241" viewBox="0 0 24.235 24.241" width="24.235" xmlns="http://www.w3.org/2000/svg">
    <g data-name="Group 224" id="Group_224" transform="translate(-1856 104)">
        <path
            d="M38.221,195.433H35.192a.505.505,0,0,0-.505.5,2.02,2.02,0,0,0,4.039,0A.5.5,0,0,0,38.221,195.433Zm5.049-7.93v-.653c0-3.527-2.1-6.542-5.049-7.341v-1.242a1.515,1.515,0,1,0-3.029,0v1.242c-2.95.8-5.049,3.814-5.049,7.341v.653a13.907,13.907,0,0,1-1.461,6.19.5.5,0,0,0,.451.731H44.28a.505.505,0,0,0,.451-.731A13.9,13.9,0,0,1,43.27,187.5Z"
            data-name="Path 29" fill="#f8702b" id="Path_29"
            transform="translate(1831.613 -277.723)" />
        <g data-name="Group 224" id="Group_224-2" opacity="0" transform="translate(1856 -104)">
            <path
                d="M89.28,179.321a1.026,1.026,0,0,0,.882-.51,5.429,5.429,0,0,1,2.1-2.116,1.009,1.009,0,0,0-.958-1.777.225.225,0,0,0-.027.014A7.408,7.408,0,0,0,88.4,177.82a1.009,1.009,0,0,0,.388,1.374A.975.975,0,0,0,89.28,179.321Zm1.951-6.855a1.009,1.009,0,0,0-1.258-.673,7.564,7.564,0,0,0-5.193,5.193,1.01,1.01,0,0,0,.673,1.26h0a1.057,1.057,0,0,0,.292.043,1.01,1.01,0,0,0,.966-.719,5.553,5.553,0,0,1,3.844-3.844,1.01,1.01,0,0,0,.674-1.26Zm12.838,3.711a7.423,7.423,0,0,0-1.644-1.24,1.01,1.01,0,1,0-1.092,1.7.98.98,0,0,0,.107.059,5.427,5.427,0,0,1,2.105,2.107,1.024,1.024,0,0,0,1.373.387,1.009,1.009,0,0,0,.388-1.375A7.488,7.488,0,0,0,104.069,176.177Zm4.858.809a7.564,7.564,0,0,0-5.193-5.193,1.01,1.01,0,1,0-.633,1.918l.048.015a5.555,5.555,0,0,1,3.844,3.844,1.028,1.028,0,0,0,1.258.676,1.011,1.011,0,0,0,.674-1.26ZM98.368,193.458H95.339a.5.5,0,0,0-.5.5,2.019,2.019,0,0,0,4.039,0A.5.5,0,0,0,98.368,193.458Zm5.049-7.93v-.653c0-3.527-2.1-6.542-5.049-7.341v-1.242a1.515,1.515,0,1,0-3.029,0v1.242c-2.949.8-5.049,3.814-5.049,7.341v.653a13.908,13.908,0,0,1-1.461,6.19.5.5,0,0,0,.451.731h15.147a.505.505,0,0,0,.451-.731A13.907,13.907,0,0,1,103.417,185.528Z"
                data-name="Path 30" fill="#f8702b" id="Path_30"
                transform="translate(-84.736 -171.741)" />
        </g>
    </g>
</svg>
