<svg height="52.165" viewBox="0 0 48.911 52.165" width="48.911" xmlns="http://www.w3.org/2000/svg">
    <g data-name="Group 281" id="Group_281" transform="translate(-364.202 -261.769)">
        <path
            d="M366.991,278.012a1.089,1.089,0,0,1,0,1.205l-2.418,3.636a2.174,2.174,0,0,0,1.809,3.369h4.373a1.09,1.09,0,0,1,.922.511l3.873,6.2a2.172,2.172,0,0,0,3.695,0l3.873-6.2a1.087,1.087,0,0,1,.922-.511h4.371a2.175,2.175,0,0,0,1.8-3.371l-2.419-3.636a1.084,1.084,0,0,1,0-1.205l2.417-3.625a2.173,2.173,0,0,0-1.809-3.379h-4.369a1.088,1.088,0,0,1-.921-.511l-3.873-6.2a2.248,2.248,0,0,0-3.7,0l-3.864,6.2a1.09,1.09,0,0,1-.922.511h-4.373a2.173,2.173,0,0,0-1.809,3.379Zm46.122-8.635a7.607,7.607,0,0,0-7.607-7.608H387.031a2.174,2.174,0,0,0,0,4.348h10.8a.542.542,0,0,1,.543.548.6.6,0,0,1-.027.173,7.935,7.935,0,0,0-.436,2.539v36.95a3.26,3.26,0,1,1-3.26-3.26,2.173,2.173,0,1,0,0-4.347H374.533a.544.544,0,0,1-.544-.544V297.09a2.173,2.173,0,1,0-4.347,0v1.591a.548.548,0,0,1-.361.513,7.583,7.583,0,0,0,2.535,14.741h22.822a7.607,7.607,0,0,0,7.607-7.607V277.039a.544.544,0,0,1,.544-.544.535.535,0,0,1,.187.033,7.355,7.355,0,0,0,2.53.456A7.607,7.607,0,0,0,413.113,269.377Zm-25.647,39.486a.542.542,0,0,1-.514.724H371.817a3.26,3.26,0,1,1,0-6.521h15.136a.545.545,0,0,1,.514.724A7.609,7.609,0,0,0,387.466,308.864Zm18.04-36.226a3.26,3.26,0,1,1,3.26-3.26A3.261,3.261,0,0,1,405.506,272.638Z"
            data-name="Path 34" fill="#f8702b" id="Path_34" transform="translate(0 0)" />
    </g>
</svg>
