<svg height="63.475" viewBox="0 0 63.567 63.475" width="63.567" xmlns="http://www.w3.org/2000/svg">
    <g data-name="Group 272" id="Group_272" transform="translate(41.275 -612.44)">
        <g data-name="Group 163" id="Group_163" transform="translate(-41.275 612.44)">
            <path
                d="M339.746,429.033l-5.08-4.085a3.02,3.02,0,0,1-1.106-2.683l.7-6.483a5.777,5.777,0,0,0-5.111-6.378,5.54,5.54,0,0,0-1.266,0l-6.489.7a3.025,3.025,0,0,1-2.685-1.106l-4.085-5.078a5.963,5.963,0,0,0-8.411-.605,6.165,6.165,0,0,0-.605.605l-4.085,5.078a3,3,0,0,1-2.683,1.106l-6.483-.7a5.778,5.778,0,0,0-6.378,5.11,5.612,5.612,0,0,0,0,1.267l.7,6.481a3.008,3.008,0,0,1-1.106,2.683l-5.086,4.088a5.785,5.785,0,0,0-.887,8.13,5.9,5.9,0,0,0,.887.887l5.081,4.085a3.009,3.009,0,0,1,1.1,2.685l-.7,6.481a5.779,5.779,0,0,0,6.377,6.38l6.484-.7a3.021,3.021,0,0,1,2.685,1.1l4.09,5.09a5.785,5.785,0,0,0,8.13.887,5.9,5.9,0,0,0,.887-.887l4.085-5.081a3.021,3.021,0,0,1,2.685-1.1l6.481.7a5.779,5.779,0,0,0,6.38-6.376l-.7-6.484a3.008,3.008,0,0,1,1.1-2.685l5.081-4.085a5.785,5.785,0,0,0,.887-8.13,6.048,6.048,0,0,0-.887-.887Zm-28.52,12.985a4.933,4.933,0,0,1-6.917.91,4.506,4.506,0,0,1-.443-.385l-6.755-6.738a2.764,2.764,0,1,1,3.839-3.978c.022.023.047.045.068.069l6.222,6.222,10.8-14.4a2.764,2.764,0,1,1,4.423,3.317Z"
                data-name="Path 6" fill="#f8702b" id="Path_6"
                transform="translate(-278.335 -401.856)" />
        </g>
    </g>
</svg>
