<svg height="37.5" viewBox="0 0 40 37.5" width="40" xmlns="http://www.w3.org/2000/svg">
    <g data-name="Group 176" id="Group_176" transform="translate(-366.937 -452.117)">
        <g data-name="Group 175" id="Group_175">
            <path
                d="M398.187,489.617h-22.5a1.249,1.249,0,0,1-1.25-1.25,12.5,12.5,0,0,1,25,0A1.25,1.25,0,0,1,398.187,489.617Zm-21.172-2.5h19.843a10,10,0,0,0-19.843,0Zm26.172-10h-3.75a1.25,1.25,0,0,1,0-2.5h3.75a1.251,1.251,0,0,0,1.25-1.25v-3.75a1.25,1.25,0,0,1,2.5,0v3.75A3.755,3.755,0,0,1,403.187,477.117Zm-28.75,0h-3.75a3.754,3.754,0,0,1-3.75-3.75v-3.75a1.25,1.25,0,0,1,2.5,0v3.75a1.25,1.25,0,0,0,1.25,1.25h3.75a1.25,1.25,0,0,1,0,2.5Zm12.5-1.25a8.125,8.125,0,1,1,8.125-8.125A8.133,8.133,0,0,1,386.937,475.867Zm-5.45-9.521a5.626,5.626,0,1,0,11.015,2.216A12.809,12.809,0,0,1,381.487,466.346Zm1.178-2.26a10.263,10.263,0,0,0,9.627,1.935,5.622,5.622,0,0,0-9.627-1.935Zm23.022-3.219a1.249,1.249,0,0,1-1.25-1.25v-3.75a1.252,1.252,0,0,0-1.25-1.25h-3.75a1.25,1.25,0,0,1,0-2.5h3.75a3.755,3.755,0,0,1,3.75,3.75v3.75A1.25,1.25,0,0,1,405.687,460.867Zm-37.5,0a1.249,1.249,0,0,1-1.25-1.25v-3.748a3.755,3.755,0,0,1,3.75-3.75h3.75a1.25,1.25,0,0,1,0,2.5h-3.75a1.251,1.251,0,0,0-1.25,1.25v3.748A1.25,1.25,0,0,1,368.187,460.865Z"
                data-name="Path 10" fill="#f8702b" id="Path_10" />
        </g>
    </g>
</svg>
