<svg height="14" viewBox="0 0 14 14" width="14" xmlns="http://www.w3.org/2000/svg">
    <path
        d="M13.672-6.125a.316.316,0,0,1,.232.1A.316.316,0,0,1,14-5.8V-4.7a.316.316,0,0,1-.1.232.316.316,0,0,1-.232.1h-.82A5.831,5.831,0,0,1,11.17-1.08,5.831,5.831,0,0,1,7.875.6v.82a.327.327,0,0,1-.328.328H6.453a.327.327,0,0,1-.328-.328V.6A5.831,5.831,0,0,1,2.83-1.08,5.831,5.831,0,0,1,1.148-4.375H.328a.316.316,0,0,1-.232-.1A.316.316,0,0,1,0-4.7V-5.8a.316.316,0,0,1,.1-.232.316.316,0,0,1,.232-.1h.82A5.831,5.831,0,0,1,2.83-9.42,5.831,5.831,0,0,1,6.125-11.1v-.82a.316.316,0,0,1,.1-.232.316.316,0,0,1,.232-.1H7.547a.316.316,0,0,1,.232.1.316.316,0,0,1,.1.232v.82A5.831,5.831,0,0,1,11.17-9.42a5.831,5.831,0,0,1,1.682,3.295Zm-5.8,4.949A4.167,4.167,0,0,0,9.939-2.311a4.167,4.167,0,0,0,1.135-2.064H9.953a.316.316,0,0,1-.232-.1.316.316,0,0,1-.1-.232V-5.8a.316.316,0,0,1,.1-.232.316.316,0,0,1,.232-.1h1.121A4.167,4.167,0,0,0,9.939-8.189,4.167,4.167,0,0,0,7.875-9.324V-8.2a.316.316,0,0,1-.1.232.316.316,0,0,1-.232.1H6.453a.316.316,0,0,1-.232-.1.316.316,0,0,1-.1-.232V-9.324A4.167,4.167,0,0,0,4.061-8.189,4.167,4.167,0,0,0,2.926-6.125H4.047a.316.316,0,0,1,.232.1.316.316,0,0,1,.1.232V-4.7a.316.316,0,0,1-.1.232.316.316,0,0,1-.232.1H2.926A4.167,4.167,0,0,0,4.061-2.311,4.167,4.167,0,0,0,6.125-1.176V-2.3a.316.316,0,0,1,.1-.232.316.316,0,0,1,.232-.1H7.547a.316.316,0,0,1,.232.1.316.316,0,0,1,.1.232Zm0-4.074a.841.841,0,0,1-.26.615A.841.841,0,0,1,7-4.375a.841.841,0,0,1-.615-.26.841.841,0,0,1-.26-.615.841.841,0,0,1,.26-.615A.841.841,0,0,1,7-6.125a.841.841,0,0,1,.615.26A.841.841,0,0,1,7.875-5.25Z"
        data-name="Path 50" fill="#f8702b" id="Path_50" transform="translate(0 12.25)" />
</svg>
