<svg data-name="Group 206" height="23.165" id="Group_206" viewBox="0 0 22.728 23.165" width="22.728"
    xmlns="http://www.w3.org/2000/svg">
    <path
        d="M368.4,111.083a.239.239,0,0,0,.05-.194.242.242,0,0,0-.116-.166,4.937,4.937,0,0,0-2.483-.644c-2.792,0-4.442,5.139-4.821,6.464a.239.239,0,0,0,.039.212.242.242,0,0,0,.194.1h3.323a.241.241,0,0,0,.241-.215,1.934,1.934,0,0,1,.243-.745A37.4,37.4,0,0,1,368.4,111.083Zm7.676-5.7a.242.242,0,0,0,.186-.287.232.232,0,0,0-.008-.027,2.4,2.4,0,0,0-.55-.936l-2.322-2.322a.968.968,0,0,0-1.368,0l-1.029,1.023-5.815-5.814,1.708-1.71a.968.968,0,0,0-1.366-1.368l-4.788,4.788a.968.968,0,0,0,1.368,1.368l1.71-1.714,5.816,5.815-1.027,1.03a.968.968,0,0,0,0,1.368l1.885,1.884a.242.242,0,0,0,.336.006A11.827,11.827,0,0,1,376.075,105.384Zm1.318,1.789c-4.518,0-9.354,7.547-10.425,9.308a.242.242,0,0,0,.207.366h15.761a.247.247,0,0,0,.177-.076.242.242,0,0,0,.064-.183C383.071,115.05,382.266,107.173,377.392,107.173Z"
        data-name="Path 23" fill="#f8702b" id="Path_23" transform="translate(-360.45 -93.687)" />
</svg>
