<svg height="52.173" viewBox="0 0 54.799 52.173" width="54.799" xmlns="http://www.w3.org/2000/svg">
    <g data-name="Group 277" id="Group_277" transform="translate(-313.2 -213.285)">
        <path
            d="M324.732,251.278a2.646,2.646,0,0,1-3.739,0h0l-2.21-2.187a2.643,2.643,0,0,1,0-3.739l0,0a2.578,2.578,0,0,1,1.881-.776,2.525,2.525,0,0,1,1.858.776l2.21,2.19a2.639,2.639,0,0,1,.006,3.733Zm-2.61-8.85a2.645,2.645,0,0,1,3.646-3.834c.03.031.064.062.093.092l3.858,3.859a2.621,2.621,0,0,1,.776,1.858,2.676,2.676,0,0,1-.776,1.881,2.73,2.73,0,0,1-3.739,0ZM334.7,241.3a2.637,2.637,0,0,1-3.728.013l-.011-.013-3.856-3.853a2.641,2.641,0,0,1-.006-3.735l.006,0a2.581,2.581,0,0,1,1.857-.776,2.647,2.647,0,0,1,1.882.776l3.856,3.853a2.641,2.641,0,0,1,0,3.735Zm4.914-5.878v.279a1.172,1.172,0,0,1-.705,1.136,2.736,2.736,0,0,1-2.96-.519l-2.187-2.211a2.523,2.523,0,0,1-.776-1.858,2.58,2.58,0,0,1,.776-1.881,2.729,2.729,0,0,1,3.739,0l2.1,2.116a1.175,1.175,0,0,1,.285,1.175A5.742,5.742,0,0,0,339.617,235.426Zm4.2,8.357a1.179,1.179,0,0,0,0-1.665l-2.483-2.483a5.531,5.531,0,0,1-.56-.659,1.176,1.176,0,0,0-1.376-.409,4.255,4.255,0,0,1-1.137.268,1.171,1.171,0,0,0-.72.344l-.02.018a1.175,1.175,0,0,0-.332.706,4.372,4.372,0,0,1-1.242,2.653,4.528,4.528,0,0,1-2.629,1.253,1.18,1.18,0,0,0-.705.341l-.068.068a1.175,1.175,0,0,0-.332.705,4.432,4.432,0,0,1-1.256,2.616,4.5,4.5,0,0,1-2.588,1.239,1.179,1.179,0,0,0-.691.339l-.143.145a1.167,1.167,0,0,0-.332.683,4.333,4.333,0,0,1-3.773,3.818,1.184,1.184,0,0,0-.681.337l-9.214,9.312a1.208,1.208,0,0,0-.258,1.27,1.177,1.177,0,0,0,1.081.727l7.2.049a1.176,1.176,0,0,0,.824-.33Zm8.335,18.283,3.034,3.389H334.388a1.178,1.178,0,0,1-.842-.346l-3.034-3.034a1.176,1.176,0,0,1,0-1.662l15.8-15.8a2.354,2.354,0,0,0,0-3.326L343,237.96a3.527,3.527,0,0,1,4.985-4.985l4.985,4.985a9.407,9.407,0,0,1,.013,13.3l-.013.011-.818.818A7.055,7.055,0,0,0,352.15,262.066Zm15.464-40.905a1.177,1.177,0,0,0-1.436-.838,1.2,1.2,0,0,0-.532.306l-3.485,3.485a1.168,1.168,0,0,1-.705.339l-3.743.416a1.175,1.175,0,0,1-1.3-1.04,1.159,1.159,0,0,1,0-.261l.413-3.739a1.2,1.2,0,0,1,.336-.706l3.488-3.485a1.173,1.173,0,0,0,0-1.662,1.2,1.2,0,0,0-.529-.306,10.459,10.459,0,0,0-2.691-.385h-.014a10.582,10.582,0,0,0,0,21.165h0A10.582,10.582,0,0,0,368,223.867,10.4,10.4,0,0,0,367.614,221.161Z"
            data-name="Path 33" fill="#f8702b" id="Path_33" transform="translate(0 0)" />
    </g>
</svg>
