<?xml version="1.0" encoding="utf-8"?>
<!-- Generator: Adobe Illustrator 24.0.0, SVG Export Plug-In . SVG Version: 6.00 Build 0)  -->
<svg version="1.1" id="Layer_1" xmlns="http://www.w3.org/2000/svg" xmlns:xlink="http://www.w3.org/1999/xlink" x="0px" y="0px"
	 viewBox="0 0 12 12" style="enable-background:new 0 0 12 12;" xml:space="preserve">
<g id="Group_252" transform="translate(-337 320)">
	<g id="Group_6" transform="translate(1)">
		<g class="st0">
			<path class="st1" d="M346.8-310.1c0.1,0.1,0.2,0.2,0.2,0.4s-0.1,0.3-0.2,0.4l-0.6,0.6c-0.1,0.1-0.2,0.2-0.4,0.2s-0.3,0-0.4-0.2
				l-2.1-2.1c-0.1-0.1-0.2-0.2-0.2-0.4v-0.3c-0.8,0.6-1.7,0.9-2.8,0.9c-0.8,0-1.6-0.2-2.2-0.6s-1.2-0.9-1.6-1.6s-0.6-1.4-0.6-2.2
				s0.2-1.6,0.6-2.2s0.9-1.2,1.6-1.6s1.4-0.6,2.2-0.6s1.6,0.2,2.2,0.6c0.7,0.4,1.2,0.9,1.6,1.6s0.6,1.4,0.6,2.2c0,1-0.3,1.9-0.9,2.8
				h0.3c0.1,0,0.3,0,0.4,0.2L346.8-310.1z M340.5-312.4c0.5,0,1-0.1,1.4-0.4s0.8-0.6,1-1c0.2-0.4,0.4-0.9,0.4-1.4s-0.1-1-0.4-1.4
				c-0.2-0.4-0.6-0.8-1-1s-0.9-0.4-1.4-0.4s-1,0.1-1.4,0.4s-0.8,0.6-1,1s-0.4,0.9-0.4,1.4s0.1,1,0.4,1.4s0.6,0.8,1,1
				S340-312.4,340.5-312.4z"/>
		</g>
	</g>
</g>
</svg>
