<svg height="45.165" viewBox="0 0 68.898 45.165" width="68.898" xmlns="http://www.w3.org/2000/svg">
    <g data-name="Group 276" id="Group_276" transform="translate(-301.407 -292.48)">
        <path
            d="M359.17,336.188a1.457,1.457,0,0,0,1.457,1.457h8.222a1.458,1.458,0,0,0,1.35-2.006,12.972,12.972,0,0,0-10.492-8.058,1.456,1.456,0,0,0-1.621,1.271,1.517,1.517,0,0,0,.056.612A22.487,22.487,0,0,1,359.17,336.188Zm-44.1-6.849a1.457,1.457,0,0,0-.941-1.833,1.411,1.411,0,0,0-.442-.07h-.035a13.084,13.084,0,0,0-12.135,8.206,1.455,1.455,0,0,0,1.352,2h9.675A1.458,1.458,0,0,0,314,336.188,22.432,22.432,0,0,1,315.067,329.339Zm14.464-11.2a.728.728,0,0,1,.241,1,.744.744,0,0,1-.329.285,18.238,18.238,0,0,0-11.074,16.759,1.457,1.457,0,0,0,1.457,1.457h33.515a1.457,1.457,0,0,0,1.457-1.457,18.232,18.232,0,0,0-11.121-16.759.728.728,0,0,1-.379-.962.743.743,0,0,1,.292-.334,13.791,13.791,0,1,0-14.059.018Zm-.962-11.864a7.38,7.38,0,0,1,.184-1.638,1.459,1.459,0,0,1,1.743-1.1,1.5,1.5,0,0,1,.428.171,17.9,17.9,0,0,0,9.252,2.569,17.226,17.226,0,0,0,2.548-.191,1.457,1.457,0,0,1,1.658,1.224,1.413,1.413,0,0,1-.005.462,7.974,7.974,0,0,1-15.807-1.5Zm29.494,18.252a8.064,8.064,0,1,0-8.016-8.113,8.224,8.224,0,0,0,.2,1.827A8.108,8.108,0,0,0,358.063,324.53ZM313.649,308.5a8.015,8.015,0,1,1-8.016,8.016A8.014,8.014,0,0,1,313.649,308.5Z"
            data-name="Path 32" fill="#f8702b" id="Path_32" transform="translate(0 0)" />
    </g>
</svg>
