<svg height="20.234" viewBox="0 0 60.066 20.234" width="60.066" xmlns="http://www.w3.org/2000/svg">
    <g data-name="Group 329" id="Group_329" opacity="0.98" transform="translate(-198.425 -258.846)">
        <path
            d="M209.186,266.322a3.258,3.258,0,1,0-3.257,3.342,3.176,3.176,0,0,0,3.257-3.342m-10.761,0a7.5,7.5,0,1,1,7.5,7.476,7.422,7.422,0,0,1-7.5-7.476"
            data-name="Path 38" fill="#f8702b" id="Path_38" transform="translate(0 0)" />
        <path
            d="M293.809,264.708V273.4h-4.248v-8.071a2.335,2.335,0,0,0-2.463-2.577c-1.558,0-2.634.906-2.634,2.917V273.4h-4.247V259.243l3.591.083.657,1.248a4.843,4.843,0,0,1,4.049-1.727c2.86,0,5.3,2.039,5.3,5.862"
            data-name="Path 39" fill="#f8702b" id="Path_39" transform="translate(-65.285 0)" />
        <path
            d="M362.974,260.811l-4.842,13.734c-1.586,4.5-4.106,6.286-8.071,6.088v-3.964c1.982,0,2.917-.623,3.54-2.35l-5.635-13.508h4.672l3.143,8.665,2.662-8.665Z"
            data-name="Path 40" fill="#f8702b" id="Path_40"
            transform="translate(-119.362 -1.568)" />
        <path
            d="M431.558,266.322a3.371,3.371,0,1,0-3.37,3.455,3.233,3.233,0,0,0,3.37-3.455m4.248-7.079V273.4h-3.591l-.657-1.331a5.318,5.318,0,0,1-4.219,1.728c-3.709,0-6.768-3.257-6.768-7.476s3.058-7.476,6.768-7.476a5.318,5.318,0,0,1,4.219,1.727l.657-1.331Z"
            data-name="Path 41" fill="#f8702b" id="Path_41" transform="translate(-177.315 0)" />
    </g>
</svg>
